<svg fill="none" height="60" viewBox="0 0 61 60" width="61" xmlns="http://www.w3.org/2000/svg"><path d="m0-.050781h60.1v60.1h-60.1z" fill="#101b29"/><path d="m43.2871 15h-3.8072v3.8072h3.8072zm-3.8057 3.8089h3.8071v3.8071h-3.8071zm-7.6144 3.8117h3.8067v3.8031.0041 3.7962.0069 3.8002h-3.8072v-3.8002-.0069-3.7962h-3.6405v3.7962.0069 3.8002h-3.8071v-3.8002-.0069-3.7962-.0041-3.8031h3.6409.1662 3.6405zm-18.8697 3.8031h3.806.0012 3.806v3.8003.0069 3.8002h-3.8072v-3.8002h-3.806zm30.2912 3.8003v-3.7962-.0041-3.8031h-3.8071v3.8031.0041 3.7962.0069 3.8002h3.8071v-3.8002zm-11.422 3.8088h3.8072v3.8072h-3.8072zm-3.6405 0h-3.8059-.0012-3.806v3.8072h3.806.0012 3.8059zm-11.4227 0h3.8072v3.8072h-3.8072zm22.6781 0h3.8071v3.8072h-3.8071zm-7.6149 7.6161v3.8059h3.8072v-3.8059-.0012-3.806h-3.8072v3.806zm3.8089-.0012h3.806v-3.806h3.8071v3.806.0012 3.8059h-3.806-.0011-3.806z" fill="#14bcac"/></svg>