<svg width="52" height="67" viewBox="0 0 52 67" fill="none" xmlns="http://www.w3.org/2000/svg">
<g clip-path="url(#clip0_2167_42881)">
<path d="M51.944 38.5385C51.6447 35.4351 50.255 32.6747 48.2801 31.2194C47.9477 30.0081 47.368 28.8792 46.5778 27.9043C46.4629 26.441 45.8402 23.5841 42.97 21.0649C43.3046 20.7753 43.5867 20.4299 43.8038 20.0438C46.209 18.9718 47.8926 16.7153 48.0797 15.0376C49.3598 13.7566 50.092 12.237 50.1535 10.7282C50.1898 10.0612 50.0642 9.39538 49.7874 8.78785C50.8563 7.64081 51.1957 6.29009 50.7441 4.98493C50.0279 2.90525 47.5212 1.55453 44.1512 1.41249C43.256 0.584371 41.9973 0.150211 40.49 0.150211C39.8217 0.15389 39.1561 0.236649 38.5071 0.396771C37.8952 0.120749 37.2296 -0.0147619 36.5589 0.0001306C35.2544 0.0143127 33.9753 0.364045 32.8442 1.01585C32.6953 0.996518 32.5454 0.986672 32.3952 0.986371C30.7223 0.986371 29.052 2.14145 28.2049 2.83021C27.3763 3.50149 26.6355 4.27497 26.0001 5.13233C25.365 4.27565 24.6252 3.50224 23.7981 2.83021C22.9509 2.14413 21.278 0.986371 19.605 0.986371C19.4558 0.986574 19.3067 0.996421 19.1587 1.01585C18.0265 0.364271 16.7467 0.0145717 15.4414 0.0001306C14.7706 -0.0147619 14.1051 0.120749 13.4932 0.396771C12.8451 0.236661 12.1804 0.153901 11.5129 0.150211C10.003 0.150211 8.7443 0.584371 7.84102 1.41249C4.4711 1.55453 1.96169 2.90525 1.24816 4.98493C0.801863 6.29009 1.14661 7.64081 2.20756 8.78785C1.93111 9.39271 1.80458 10.0556 1.83876 10.7201C1.90023 12.2316 2.64049 13.7485 3.91256 15.0296C4.10765 16.7073 5.79929 18.9638 8.18844 20.0358C8.40728 20.4261 8.69317 20.7745 9.03292 21.0649C6.16007 23.5841 5.54007 26.441 5.42248 27.9043C4.63307 28.8794 4.05428 30.0083 3.72282 31.2194C1.7479 32.6747 0.355568 35.4351 0.0589292 38.5385C-0.23771 41.642 0.606776 44.5015 2.32247 46.3266C2.63332 47.8736 3.27121 49.3358 4.19317 50.6146C4.3995 53.0392 5.38836 55.3302 7.0099 57.1404C8.63075 59.0107 10.808 60.3091 13.2206 60.8442C14.6604 62.1866 16.3481 63.2336 18.1886 63.9262C19.0786 64.8266 21.6628 66.9894 26.0028 66.9894C30.3428 66.9894 32.9271 64.8266 33.817 63.9262C35.6579 63.2342 37.3457 62.1871 38.785 60.8442C41.1976 60.3091 43.3749 59.0107 44.9957 57.1404C46.6152 55.3333 47.6031 53.0461 47.8098 50.6253C48.7328 49.3471 49.3708 47.8847 49.6805 46.3373C51.3962 44.5015 52.238 41.6232 51.944 38.5385ZM40.3537 29.1076C38.2761 27.952 36.4404 26.405 34.9474 24.5516C33.0072 22.2388 34.2686 21.2096 37.3232 21.7671C38.4936 22.0781 39.5812 22.6441 40.5087 23.4246C41.4362 24.2051 42.1808 25.181 42.6894 26.2829C43.7611 29.188 42.9166 30.5816 40.3537 29.1076ZM32.3097 4.49449C32.3516 4.48247 32.3959 4.48092 32.4385 4.48997C32.4812 4.49902 32.521 4.5184 32.5544 4.54642C32.5879 4.57443 32.614 4.61023 32.6305 4.6507C32.647 4.69116 32.6534 4.73506 32.6491 4.77857C32.5636 5.58257 33.0446 5.47537 33.1596 5.33333C34.4102 3.77357 35.7358 3.41713 36.9223 3.52433C36.9692 3.52977 37.0138 3.54758 37.0516 3.57592C37.0894 3.60427 37.1191 3.64216 37.1376 3.68573C37.156 3.72929 37.1626 3.77699 37.1568 3.82396C37.1509 3.87093 37.1327 3.9155 37.104 3.95313C36.631 4.65529 37.1388 4.78661 37.3285 4.66065C39.2527 3.45465 41.0913 3.45197 41.7968 3.95849C41.8281 3.98243 41.8537 4.01301 41.8718 4.04802C41.89 4.08304 41.9002 4.12164 41.9017 4.16107C41.9032 4.20049 41.896 4.23977 41.8807 4.2761C41.8653 4.31242 41.8422 4.3449 41.8129 4.37121C41.0993 4.98225 41.4975 5.28509 41.7487 5.19129C43.7049 4.49985 46.4041 5.11357 47.3448 5.90953C47.3741 5.93469 47.3977 5.96592 47.4138 6.00109C47.43 6.03625 47.4383 6.0745 47.4383 6.11321C47.4383 6.15192 47.43 6.19017 47.4138 6.22534C47.3977 6.2605 47.3741 6.29173 47.3448 6.31689C46.1555 7.37549 45.5703 8.22505 45.303 9.88933C45.2496 10.3583 46.0273 10.2592 46.356 10.1761C46.3941 10.167 46.4337 10.1664 46.472 10.1744C46.5104 10.1824 46.5465 10.1987 46.5779 10.2222C46.6092 10.2457 46.6351 10.2759 46.6535 10.3105C46.672 10.3452 46.6826 10.3834 46.6847 10.4226C46.7141 11.5536 45.6505 12.7918 44.0657 13.853C43.8546 13.9951 43.884 14.3381 44.3677 14.3488C44.4135 14.3501 44.4582 14.3631 44.4975 14.3866C44.5368 14.4102 44.5694 14.4435 44.5922 14.4833C44.615 14.5231 44.6272 14.5681 44.6277 14.614C44.6282 14.66 44.6168 14.7052 44.5949 14.7455C44.0283 15.7987 43.2586 16.7876 40.645 17.4684C40.5908 17.4823 40.5424 17.513 40.5065 17.556C40.4706 17.599 40.4491 17.6522 40.4449 17.7082C40.4408 17.7641 40.4543 17.8199 40.4835 17.8678C40.5126 17.9156 40.5561 17.9531 40.6076 17.9749C40.651 17.9911 40.6894 18.0183 40.7192 18.0538C40.749 18.0894 40.769 18.1321 40.7773 18.1777C40.7857 18.2234 40.7821 18.2705 40.7668 18.3143C40.7516 18.3581 40.7253 18.3972 40.6904 18.4278C38.0875 20.6736 31.4839 19.7892 30.6448 16.0158C30.6373 15.9787 30.6376 15.9404 30.6459 15.9034C30.6542 15.8665 30.6702 15.8317 30.6929 15.8014C32.2589 13.7056 35.9015 9.60257 41.6498 7.44517C41.697 7.42653 41.7358 7.39128 41.7589 7.34604C41.782 7.30079 41.7879 7.24864 41.7755 7.19935C41.763 7.15006 41.7331 7.10701 41.6913 7.07827C41.6495 7.04952 41.5986 7.03704 41.5483 7.04317C39.1885 7.38715 36.9209 8.20039 34.8787 9.43515C32.8366 10.6699 31.0609 12.3013 29.656 14.2336C29.618 14.2851 29.5629 14.3212 29.5007 14.3355C29.4384 14.3498 29.3731 14.3412 29.3166 14.3113C25.0701 12.1137 28.5443 5.64153 32.2964 4.49449H32.3097ZM26.0001 21.2257C27.8678 21.2229 29.6793 21.8666 31.1285 23.0481C34.8111 26.1194 30.594 28.2902 26.0001 28.2902C21.4062 28.2902 17.1811 26.1194 20.8744 23.0481C22.3225 21.8664 24.1332 21.2227 26.0001 21.2257ZM7.41344 14.7401C7.39153 14.7001 7.38021 14.655 7.38054 14.6093C7.38088 14.5636 7.39287 14.5188 7.41536 14.479C7.43786 14.4393 7.47012 14.406 7.50907 14.3822C7.54802 14.3585 7.59238 14.3452 7.63792 14.3435C8.12163 14.3435 8.15102 13.9897 7.9399 13.8477C6.35516 12.7757 5.29153 11.5482 5.32093 10.4173C5.32475 10.379 5.33678 10.3419 5.35618 10.3086C5.37558 10.2754 5.4019 10.2467 5.43335 10.2246C5.46481 10.2024 5.50065 10.1874 5.53843 10.1804C5.57622 10.1734 5.61506 10.1747 5.65231 10.1841C5.98102 10.2672 6.75602 10.3664 6.70257 9.89737C6.43533 8.23309 5.85274 7.38353 4.66351 6.32493C4.63418 6.29977 4.61062 6.26854 4.59447 6.23337C4.57832 6.19821 4.56996 6.15996 4.56996 6.12125C4.56996 6.08254 4.57832 6.04429 4.59447 6.00913C4.61062 5.97396 4.63418 5.94273 4.66351 5.91757C5.60421 5.11357 8.30335 4.50789 10.2596 5.19933C10.5108 5.29313 10.9116 4.99029 10.1981 4.37925C10.1688 4.35294 10.1456 4.32046 10.1303 4.28414C10.1149 4.24781 10.1077 4.20853 10.1093 4.16911C10.1108 4.12968 10.121 4.09108 10.1391 4.05606C10.1573 4.02105 10.1829 3.99047 10.2141 3.96653C10.9197 3.46001 12.7556 3.46269 14.6824 4.66869C14.8695 4.79465 15.3773 4.66869 14.9069 3.96117C14.8783 3.92354 14.8601 3.87897 14.8542 3.832C14.8483 3.78503 14.8549 3.73733 14.8734 3.69377C14.8919 3.6502 14.9215 3.61231 14.9593 3.58396C14.9971 3.55562 15.0417 3.53781 15.0886 3.53237C16.2752 3.42517 17.6007 3.78161 18.8514 5.34137C18.9636 5.48341 19.4447 5.58257 19.3618 4.78661C19.3577 4.7434 19.3641 4.69982 19.3805 4.65963C19.3968 4.61944 19.4227 4.58385 19.4558 4.5559C19.4889 4.52795 19.5283 4.50849 19.5706 4.4992C19.6129 4.4899 19.6568 4.49104 19.6986 4.50253C23.44 5.64957 26.9275 12.1218 22.6943 14.314C22.6376 14.3446 22.5717 14.3536 22.5088 14.3393C22.446 14.325 22.3904 14.2884 22.3523 14.2363C20.949 12.3034 19.175 10.671 17.1342 9.43488C15.0934 8.19875 12.8271 7.38379 10.468 7.03781C10.4173 7.03063 10.3658 7.0424 10.3232 7.07087C10.2806 7.09934 10.25 7.14252 10.2371 7.19219C10.2242 7.24186 10.23 7.29455 10.2534 7.34021C10.2768 7.38588 10.316 7.42133 10.3638 7.43981C16.1042 9.59721 19.7467 13.7003 21.3207 15.796C21.3434 15.8263 21.3594 15.8611 21.3677 15.8981C21.376 15.935 21.3764 15.9733 21.3688 16.0105C20.5324 19.7892 13.9288 20.6736 11.3232 18.4224C11.2883 18.3919 11.262 18.3528 11.2468 18.3089C11.2316 18.2651 11.2279 18.218 11.2363 18.1724C11.2446 18.1267 11.2647 18.084 11.2944 18.0485C11.3242 18.0129 11.3626 17.9857 11.406 17.9695C11.4576 17.9477 11.501 17.9103 11.5302 17.8624C11.5594 17.8146 11.5728 17.7587 11.5687 17.7028C11.5646 17.6469 11.543 17.5936 11.5071 17.5506C11.4712 17.5076 11.4228 17.477 11.3686 17.463C8.7443 16.7876 7.97732 15.8121 7.41344 14.7401ZM9.32422 26.2882C9.83432 25.1865 10.5804 24.2111 11.5093 23.4314C12.4382 22.6518 13.5271 22.0872 14.6985 21.7778C17.745 21.2204 19.0064 22.2441 17.0662 24.5623C15.5736 26.4161 13.7379 27.9631 11.6599 29.1183C9.08637 30.5816 8.23921 29.188 9.32422 26.2936V26.2882ZM4.00877 42.3816C3.5861 41.2371 3.42152 40.0129 3.52688 38.797C3.63223 37.581 4.00489 36.4036 4.61808 35.3493C5.98102 33.0258 7.3493 33.1196 7.8918 35.0813C8.58261 37.7929 8.33286 40.6594 7.18361 43.2098C6.16809 45.2224 4.90938 44.5444 4.00877 42.3816ZM13.8166 57.4164C10.5509 56.7277 7.77689 53.4286 7.65395 50.0813C8.15637 38.166 25.2813 59.4479 13.8085 57.4164H13.8166ZM14.164 42.5746C11.2911 40.913 10.5295 36.8394 12.4643 33.4787C14.3991 30.118 18.2955 28.7431 21.1684 30.4074C24.0412 32.0717 24.8002 36.1426 22.8654 39.5006C20.9305 42.8587 17.0288 44.2362 14.164 42.5746ZM30.7971 61.9644C29.4013 62.9716 27.7251 63.5135 26.0055 63.5135C24.2859 63.5135 22.6097 62.9716 21.2138 61.9644C18.3677 59.9946 21.2299 57.7273 26.0055 57.7273C30.7811 57.7273 33.6379 59.9946 30.7918 61.9644H30.7971ZM26.0055 54.7284C22.3256 54.7284 19.3405 52.161 19.3405 48.9959C19.3405 45.8308 22.3256 43.266 26.0055 43.266C29.6854 43.266 32.6732 45.8335 32.6732 48.9959C32.6732 52.1583 29.6827 54.7418 26.0001 54.7418L26.0055 54.7284ZM29.1295 39.5006C27.1974 36.1426 27.9563 32.069 30.8292 30.4074C33.7021 28.7458 37.5958 30.1206 39.5306 33.4787C41.4654 36.8367 40.7065 40.913 37.8336 42.5746C34.9608 44.2362 31.0751 42.8614 29.1295 39.5006ZM38.181 57.4164C26.7244 59.4479 43.8466 38.166 44.3624 50.0813C44.2314 53.4286 41.4574 56.7277 38.1917 57.4164H38.181ZM47.9915 42.3816C47.0829 44.5444 45.8215 45.2224 44.814 43.2151C43.6647 40.6648 43.415 37.7982 44.1058 35.0867C44.6403 33.1196 46.0193 33.0258 47.3795 35.3547C47.9941 36.4073 48.3686 37.5832 48.4763 38.7982C48.584 40.0131 48.422 41.2369 48.0022 42.3816H47.9915Z" fill="white"/>
</g>
<defs>
<clipPath id="clip0_2167_42881">
<rect width="52" height="67" fill="white"/>
</clipPath>
</defs>
</svg>
